<?xml version="1.0"?>
<svg xmlns="http://www.w3.org/2000/svg" xmlns:xlink="http://www.w3.org/1999/xlink" xmlns:svgjs="http://svgjs.com/svgjs" version="1.1" width="256" height="256" x="0" y="0" viewBox="0 0 24 24" style="enable-background:new 0 0 512 512" xml:space="preserve"><g><path d="M17,24H7c-2.757,0-5-2.243-5-5V5C2,2.243,4.243,0,7,0h10c2.757,0,5,2.243,5,5v14c0,2.757-2.243,5-5,5ZM7,2c-1.654,0-3,1.346-3,3v14c0,1.654,1.346,3,3,3h10c1.654,0,3-1.346,3-3V5c0-1.654-1.346-3-3-3H7Zm11,4c0-.552-.448-1-1-1h-4c-.552,0-1,.448-1,1s.448,1,1,1h4c.552,0,1-.448,1-1Zm0,6c0-.552-.448-1-1-1h-4c-.552,0-1,.448-1,1s.448,1,1,1h4c.552,0,1-.448,1-1Zm0,6c0-.552-.448-1-1-1h-4c-.552,0-1,.448-1,1s.448,1,1,1h4c.552,0,1-.448,1-1ZM10,7v-2c0-.552-.448-1-1-1h-2c-.552,0-1,.448-1,1v2c0,.552,.448,1,1,1h2c.552,0,1-.448,1-1Zm0,6v-2c0-.552-.448-1-1-1h-2c-.552,0-1,.448-1,1v2c0,.552,.448,1,1,1h2c.552,0,1-.448,1-1Zm0,6v-2c0-.552-.448-1-1-1h-2c-.552,0-1,.448-1,1v2c0,.552,.448,1,1,1h2c.552,0,1-.448,1-1Z" fill="#bd76f5" data-original="#000000"/></g></svg>
